# xmcd
#
# Track frame offsets: 
#        150
#        16282
#        35032
#        58936
#        75041
#        88393
#        106811
#        130062
#        148592
#        165193
#        179266
#
# Disc length: 2931 seconds
#
# Revision: 2
# Processed by: cddbd v1.5.2PL0 Copyright (c) Steve Scherf et al.
# Submitted via: ExactAudioCopy v0.99pb5
#
DISCID=840b710b
DTITLE=Will Young - Friday's Child
DYEAR=2003
DGENRE=Pop
TTITLE0=Love The One You're With
TTITLE1=Your Game
TTITLE2=Stronger
TTITLE3=Leave Right Now
TTITLE4=Love Is A Matter Of Distance
TTITLE5=Dance The Night Away
TTITLE6=Very Kind
TTITLE7=Free
TTITLE8=Going My Way
TTITLE9=Out Of My Mind
TTITLE10=Friday's Child
EXTD=YEAR: 2003
EXTT0=
EXTT1=
EXTT2=
EXTT3=
EXTT4=
EXTT5=
EXTT6=
EXTT7=
EXTT8=
EXTT9=
EXTT10=
PLAYORDER=
